<?xml version="1.0" encoding="utf-8"?>
<!-- Generator: Adobe Illustrator 15.0.0, SVG Export Plug-In . SVG Version: 6.00 Build 0)  -->
<!DOCTYPE svg PUBLIC "-//W3C//DTD SVG 1.1//EN" "http://www.w3.org/Graphics/SVG/1.1/DTD/svg11.dtd">
<svg version="1.1" id="Layer_1" xmlns="http://www.w3.org/2000/svg" xmlns:xlink="http://www.w3.org/1999/xlink" x="0px" y="0px"
	 width="595.28px" height="841.89px" viewBox="0 0 595.28 841.89" enable-background="new 0 0 595.28 841.89" xml:space="preserve">
<g>
	<path fill="#141414" d="M92.352,489.449v136h136v-136H92.352z M196.352,593.449h-72v-72h72V593.449z"/>
	<path fill="#141414" d="M367,215.667v136h136v-136H367z M471,319.667h-72v-72h72V319.667z"/>
	<path fill="#141414" d="M92.352,215.667v136h136v-136H92.352z M196.352,319.667h-72v-72h72V319.667z"/>
	<rect x="145" y="267.333" fill="#141414" width="32.667" height="32.667"/>
	<rect x="145" y="540.666" fill="#141414" width="32.667" height="32.667"/>
	<rect x="417.667" y="267.333" fill="#141414" width="32.667" height="32.667"/>
	<rect x="285" y="215.667" fill="#141414" width="32.666" height="32.667"/>
	<rect x="317" y="277" fill="#141414" width="32.666" height="32.667"/>
	<rect x="125.075" y="373.563" fill="#141414" width="32.011" height="32.011"/>
	<rect x="188.825" y="373.563" fill="#141414" width="64.011" height="32.011"/>
	<rect x="412.075" y="373.563" fill="#141414" width="58.511" height="32.011"/>
	<rect x="157.093" y="405.653" fill="#141414" width="32.011" height="32.011"/>
	<rect x="188.274" y="437.637" fill="#141414" width="32.011" height="32.011"/>
	<rect x="380.994" y="405.495" fill="#141414" width="32.011" height="32.011"/>
	<rect x="349.813" y="437.479" fill="#141414" width="32.011" height="32.011"/>
	<rect x="412.494" y="500.494" fill="#141414" width="32.011" height="32.012"/>
	<rect x="381.313" y="532.479" fill="#141414" width="32.011" height="32.011"/>
	<rect x="285" y="469" fill="#141414" width="32.666" height="32.666"/>
	<rect x="347.5" y="592.783" fill="#141414" width="32.666" height="32.666"/>
	<rect x="92.352" y="405.55" fill="#141414" width="32.666" height="64.167"/>
	<rect x="253.018" y="405.55" fill="#141414" width="32.666" height="64.167"/>
	<rect x="253.018" y="248.05" fill="#141414" width="32.666" height="61.667"/>
	<rect x="252.351" y="500.494" fill="#141414" width="32.666" height="61.5"/>
	<rect x="470.334" y="500.494" fill="#141414" width="32.666" height="63.613"/>
	<rect x="316.518" y="373.55" fill="#141414" width="32.666" height="64.167"/>
	<rect x="317.325" y="499.563" fill="#141414" width="64.011" height="32.012"/>
	<polygon fill="#141414" points="470.586,563.813 413.325,563.813 413.325,568.188 413.325,595.824 413.325,625.449 
		445.337,625.449 445.337,595.824 470.586,595.824 	"/>
	<polygon fill="#141414" points="348.586,561.813 285.325,561.813 285.325,566.188 285.325,593.824 285.325,625.449 
		317.337,625.449 317.337,593.824 348.586,593.824 	"/>
	<polygon fill="#141414" points="253.325,373.116 316.586,373.116 316.586,368.741 316.586,341.104 316.586,309.479 
		284.574,309.479 284.574,341.104 253.325,341.104 	"/>
	<polygon fill="#141414" points="412.739,468.782 503,468.782 503,464.407 503,436.771 503,405.146 470.988,405.146 
		470.988,436.771 412.739,436.771 	"/>
</g>
</svg>
