<svg version="1.1" id="Layer_1" xmlns="http://www.w3.org/2000/svg" xmlns:xlink="http://www.w3.org/1999/xlink" x="0px" y="0px" enable-background="new 0 0 3000 2000" xml:space="preserve" viewBox="1355.33 810.27 289.33 379.46"> <g> 	<path fill="#2D2D2D" d="M1603.969,1134.768c-1.65-1.311-4.053-1.035-5.364,0.615c-11.415,14.371-24.867,26.555-39.984,36.212 &#9;&#9;c-1.779,1.136-2.295,3.495-1.161,5.272c1.134,1.775,3.493,2.297,5.272,1.162c15.827-10.113,29.908-22.863,41.85-37.899 &#9;&#9;C1605.893,1138.479,1605.618,1136.078,1603.969,1134.768"/> 	<path fill="#2D2D2D" d="M1617.84,1122.334c-6.863-1.514-13.71-3.63-20.353-6.289c-1.656-0.664-3.547-0.093-4.558,1.369 &#9;&#9;c-16.902,24.416-39.179,42.457-66.218,53.625c-17.165,7.084-35.239,10.805-53.727,11.055c-2.113,0.03-3.795,1.762-3.768,3.871 &#9;&#9;c0.032,2.09,1.735,3.764,3.815,3.764c0.021,0,0.037,0,0.054,0c19.455-0.266,38.476-4.179,56.538-11.634 &#9;&#9;c27.501-11.358,50.31-29.474,67.841-53.87c6.143,2.307,12.431,4.176,18.725,5.564c2.074,0.459,4.1-0.848,4.552-2.905 &#9;&#9;C1621.193,1124.826,1619.893,1122.788,1617.84,1122.334"/> 	<path fill="#2D2D2D" d="M1625.934,1108.396c-11.792-2.126-23.174-6.042-33.815-11.639c-1.811-0.95-4.053-0.308-5.079,1.462 &#9;&#9;c-15.919,27.404-38.174,47.158-66.142,58.713c-32.392,13.377-68.899,13.295-101.936-0.573c-2.069-0.866-4.053-1.761-5.885-2.657 &#9;&#9;c-1.897-0.928-4.182-0.141-5.105,1.754c-0.925,1.894-0.141,4.18,1.752,5.105c1.967,0.961,4.084,1.917,6.287,2.839 &#9;&#9;c34.101,14.315,72.748,15.067,107.799,0.589c28.484-11.77,51.342-31.553,67.986-58.835c10.399,5.091,21.406,8.704,32.783,10.755 &#9;&#9;c2.063,0.365,4.063-1.004,4.434-3.08C1629.39,1110.754,1628.014,1108.77,1625.934,1108.396"/> 	<path fill="#2D2D2D" d="M1452.858,820.385c8.303,2.746,16.456,6.191,24.232,10.237c0.554,0.285,1.156,0.43,1.763,0.43 &#9;&#9;c0.479,0,0.951-0.088,1.408-0.269c18.375-7.282,37.647-11.618,57.285-12.886c2.102-0.135,3.698-1.951,3.563-4.055 &#9;&#9;c-0.135-2.103-1.945-3.713-4.058-3.563c-19.854,1.281-39.356,5.578-57.984,12.772c-7.674-3.891-15.672-7.224-23.813-9.916 &#9;&#9;c-2.004-0.661-4.16,0.424-4.82,2.424C1449.772,817.563,1450.858,819.723,1452.858,820.385"/> 	<path fill="#2D2D2D" d="M1632.237,1093.932c-16.439-2.401-32.219-8.816-45.639-18.551c-0.936-0.678-2.15-0.842-3.263-0.539 &#9;&#9;c-1.112,0.299-2.058,1.143-2.525,2.195l-0.107,0.236c-14.474,31.484-36.557,53.539-65.637,65.551 &#9;&#9;c-28.216,11.635-60.456,11.934-90.188-0.54c-19.434-8.169-37.384-22.263-50.54-39.686c-1.273-1.683-3.666-2.017-5.348-0.744 &#9;&#9;c-1.682,1.271-2.016,3.663-0.747,5.346c13.957,18.48,33.021,33.438,53.679,42.122c31.059,13.029,65.406,13.197,96.057,0.557 &#9;&#9;c29.758-12.289,52.588-34.385,67.904-65.705c13.564,8.994,29.113,14.953,45.252,17.311c2.091,0.305,4.021-1.139,4.326-3.225 &#9;&#9;C1635.769,1096.174,1634.323,1094.235,1632.237,1093.932"/> 	<path fill="#2D2D2D" d="M1431.092,830.415c15.521,3.053,30.649,8.788,44.968,17.044c0.59,0.338,1.246,0.51,1.907,0.51 &#9;&#9;c0.532,0,1.059-0.109,1.553-0.331l0.785-0.339c22.153-9.657,45.649-14.553,69.834-14.553c8.046,0,16.177,0.552,24.175,1.644 &#9;&#9;c2.079,0.283,4.009-1.178,4.294-3.266c0.29-2.089-1.177-4.013-3.263-4.298c-8.341-1.138-16.816-1.715-25.206-1.715 &#9;&#9;c-24.888,0-49.078,4.97-71.94,14.78c-14.554-8.165-29.898-13.871-45.634-16.968c-2.063-0.405-4.073,0.94-4.482,3.009 &#9;&#9;C1427.679,828.001,1429.022,830.008,1431.092,830.415"/> 	<path fill="#2D2D2D" d="M1636.833,1079.139c-21.563-2.518-41.346-12.9-55.7-29.235c-0.902-1.024-2.278-1.492-3.622-1.223 &#9;&#9;c-1.338,0.269-2.43,1.23-2.865,2.522c-2.234,6.635-4.863,13.26-7.803,19.688c-12.813,27.869-32.193,47.32-57.613,57.813 &#9;&#9;c-24.539,10.156-52.674,10.336-78.428-0.496c-25.824-10.849-47.488-32.818-57.957-58.771c-3.826-9.456-6.353-19.375-7.52-29.482 &#9;&#9;c-0.241-2.093-2.139-3.593-4.229-3.354c-2.091,0.242-3.596,2.135-3.354,4.23c1.242,10.788,3.944,21.375,8.024,31.465 &#9;&#9;c11.211,27.797,34.418,51.329,62.079,62.949c27.253,11.467,57.511,11.602,84.297,0.514c27.259-11.25,47.992-32.001,61.639-61.684 &#9;&#9;c2.171-4.746,4.175-9.595,5.986-14.476c15.14,15.072,34.858,24.634,56.179,27.122c2.102,0.244,3.992-1.256,4.234-3.35 &#9;&#9;S1638.923,1079.383,1636.833,1079.139"/> 	<path fill="#2D2D2D" d="M1412.314,843.319c21.663,1.409,43.344,8.812,62.702,21.406c0.629,0.412,1.354,0.619,2.08,0.619 &#9;&#9;c0.607,0,1.214-0.145,1.773-0.436c2.477-1.298,5.014-2.512,7.54-3.607c20.213-8.815,41.651-13.286,63.729-13.286 &#9;&#9;c16.903,0,33.772,2.632,50.133,7.822c2.004,0.637,4.153-0.475,4.794-2.484c0.64-2.009-0.474-4.155-2.483-4.792 &#9;&#9;c-17.112-5.429-34.756-8.18-52.443-8.18c-23.131,0-45.601,4.684-66.771,13.918c-2.026,0.876-4.052,1.826-6.063,2.831 &#9;&#9;c-19.971-12.581-42.227-19.98-64.497-21.428c-2.123-0.145-3.919,1.457-4.058,3.562 &#9;&#9;C1408.616,841.367,1410.207,843.182,1412.314,843.319"/> 	<path fill="#2D2D2D" d="M1639.778,1064.107c-12.598-1.268-24.695-5.847-34.993-13.24c-12.382-8.905-21.519-21.271-26.415-35.752 &#9;&#9;c-0.677-2.02-1.628-4.029-2.821-5.975c-0.849-1.375-2.461-2.068-4.042-1.738c-1.579,0.334-2.778,1.623-2.992,3.221 &#9;&#9;c-2.569,18.898-7.805,37.027-15.555,53.887c-11.135,24.254-27.807,41.104-49.545,50.084c-21.584,8.906-45.441,8.473-66.701-0.465 &#9;&#9;c-22.143-9.305-40.728-28.146-49.713-50.398c-5.326-13.209-7.702-27.231-7.073-41.678c0.054-1.247-0.505-2.442-1.494-3.199 &#9;&#9;c-0.994-0.758-2.295-0.982-3.482-0.602c-5.256,1.684-10.674,2.762-16.106,3.205c-2.102,0.17-3.666,2.012-3.499,4.114 &#9;&#9;c0.172,2.101,2.021,3.674,4.116,3.495c4.273-0.35,8.54-1.053,12.732-2.098c0.049,13.692,2.639,26.994,7.723,39.617 &#9;&#9;c9.738,24.102,29.86,44.506,53.835,54.581c23.476,9.866,49.428,10.034,72.575,0.483c23.577-9.74,41.604-27.891,53.572-53.953 &#9;&#9;c6.276-13.65,10.963-28.097,13.994-43.09c5.772,12.975,14.807,24.096,26.438,32.459c11.382,8.174,24.759,13.236,38.684,14.637 &#9;&#9;c2.085,0.221,3.967-1.318,4.182-3.416C1643.405,1066.189,1641.88,1064.318,1639.778,1064.107"/> 	<path fill="#2D2D2D" d="M1396.422,858.672c1.924-0.168,3.993-0.277,6.138-0.322c0.752-0.015,1.494-0.008,2.214-0.014 &#9;&#9;c23.938,0,48.525,8.649,69.237,24.355c0.684,0.515,1.494,0.775,2.307,0.775c0.72,0,1.439-0.203,2.074-0.612 &#9;&#9;c4.429-2.862,9.174-5.41,14.107-7.568c18.283-7.965,37.68-12.004,57.64-12.004c21.105,0,41.985,4.508,62.048,13.401 &#9;&#9;c2.192,0.968,4.181,1.904,6.089,2.864c1.881,0.951,4.181,0.191,5.127-1.692c0.946-1.883,0.188-4.178-1.693-5.126 &#9;&#9;c-2.021-1.018-4.127-2.008-6.433-3.027c-21.041-9.326-42.958-14.054-65.138-14.054c-21.019,0-41.436,4.252-60.692,12.642 &#9;&#9;c-4.487,1.963-8.83,4.225-12.946,6.739c-21.584-15.705-46.95-24.327-71.727-24.327c-0.774,0-1.559,0-2.37,0.016 &#9;&#9;c-2.316,0.048-4.558,0.167-6.653,0.351s-3.649,2.035-3.466,4.135C1392.472,857.304,1394.32,858.87,1396.422,858.672"/> 	<path fill="#2D2D2D" d="M1641.148,1048.886c-22.201-2.3-41.167-17.468-48.305-38.649c-4.197-12.421-14.317-23.218-27.071-28.876 &#9;&#9;c-1.987-0.885-3.987-1.611-5.948-2.159c-1.156-0.323-2.392-0.084-3.349,0.646c-0.957,0.73-1.505,1.866-1.494,3.067 &#9;&#9;c0.258,26.057-5.24,52.065-15.897,75.213c-9.48,20.639-23.442,34.89-41.506,42.357c-17.359,7.174-37.019,7.104-54.942-0.434 &#9;&#9;c-18.493-7.771-33.998-23.483-41.469-42.035c-8.131-20.123-8.051-42.377,0.231-66.144c0.597-1.705-0.086-3.595-1.634-4.527 &#9;&#9;c-1.548-0.929-3.536-0.649-4.768,0.674c-9.501,10.239-22.373,16.672-36.238,18.114c-2.097,0.219-3.623,2.096-3.402,4.191 &#9;&#9;s2.085,3.619,4.191,3.402c11.2-1.164,21.831-5.205,30.908-11.633c-4.938,20.842-3.729,40.563,3.628,58.777 &#9;&#9;c8.218,20.397,25.265,37.675,45.597,46.217c19.9,8.371,41.672,8.363,60.815,0.451c19.901-8.227,35.218-23.781,45.521-46.223 &#9;&#9;c10.384-22.545,16.07-47.679,16.569-73.02c0.026,0.013,0.054,0.025,0.086,0.037c10.841,4.811,19.413,13.911,22.938,24.342 &#9;&#9;c8.094,24.002,29.586,41.195,54.753,43.801c2.112,0.219,3.973-1.306,4.187-3.404 &#9;&#9;C1644.771,1050.979,1643.244,1049.102,1641.148,1048.886"/> 	<path fill="#2D2D2D" d="M1383.266,876.223c6.405-1.589,13.011-2.466,19.638-2.604c0.629-0.016,1.23-0.015,1.87-0.015 &#9;&#9;c24.062,0,48.981,10.298,68.373,28.253c1.418,1.315,3.601,1.359,5.067,0.104c6.052-5.157,12.915-9.42,20.396-12.675 &#9;&#9;c16.337-7.124,33.676-10.736,51.528-10.736c18.967,0,37.755,4.066,55.846,12.084c8.276,3.675,16.321,8.188,23.921,13.414 &#9;&#9;c0.661,0.454,1.413,0.672,2.16,0.672c1.215,0,2.408-0.578,3.149-1.654c1.193-1.736,0.753-4.113-0.983-5.307 &#9;&#9;c-7.986-5.492-16.445-10.237-25.152-14.103c-19.073-8.454-38.904-12.74-58.94-12.74c-18.906,0-37.271,3.826-54.576,11.372 &#9;&#9;c-7.121,3.096-13.736,7.037-19.708,11.737c-20.412-17.868-46.139-28.056-71.081-28.056c-0.672,0-1.354,0-2.036,0.016 &#9;&#9;c-7.186,0.151-14.355,1.103-21.311,2.829c-2.047,0.507-3.294,2.578-2.788,4.624 &#9;&#9;C1379.148,875.484,1381.218,876.732,1383.266,876.223"/> 	<path fill="#2D2D2D" d="M1641.363,1033.541c-15.876-2.174-28.925-12.977-34.063-28.187c-5.524-16.405-18.735-30.593-35.342-37.954 &#9;&#9;c-7.267-3.215-14.607-4.846-21.82-4.846c-2.794,0-5.578,0.253-8.266,0.752c-1.967,0.364-3.321,2.186-3.095,4.173 &#9;&#9;c3.149,28.468-1.662,58.399-13.561,84.28c-7.83,17.031-19.089,28.678-33.46,34.617c-14.119,5.803-29.495,5.361-43.216-0.402 &#9;&#9;c-14.812-6.227-27.231-18.813-33.219-33.666c-7.395-18.324-6.267-40.983,3.091-62.166c2.445-5.531,5.487-12.415,2.574-19.904 &#9;&#9;c-2.408-6.202-8.739-12.354-16.026-12.226c-7.444,0.169-12.518,6.982-16.118,12.912c-6.428,10.691-17.719,18.105-30.214,19.836 &#9;&#9;c-2.091,0.289-3.547,2.216-3.258,4.304c0.291,2.089,2.226,3.548,4.306,3.258c14.753-2.043,28.107-10.816,35.701-23.45 &#9;&#9;c1.37-2.259,5.541-9.131,9.76-9.227c3.591-0.099,7.331,3.752,8.733,7.356c1.64,4.223,0.097,8.308-2.439,14.056 &#9;&#9;c-10.185,23.058-11.346,47.881-3.192,68.105c6.739,16.7,20.696,30.85,37.346,37.85c15.817,6.644,33.278,6.914,49.079,0.42 &#9;&#9;c16.215-6.699,28.828-19.647,37.491-38.485c11.953-26.003,17.08-55.901,14.57-84.608c7.19-0.638,14.688,0.742,22.142,4.041 &#9;&#9;c14.678,6.508,26.34,18.998,31.199,33.414c6.072,17.975,21.497,30.739,40.264,33.311c2.069,0.277,4.016-1.176,4.3-3.264 &#9;&#9;C1644.915,1035.752,1643.454,1033.827,1641.363,1033.541"/> 	<path fill="#2D2D2D" d="M1372.963,895.996c9.636-4.491,19.82-6.883,30.295-7.11c0.517-0.013,1.016-0.014,1.516-0.013 &#9;&#9;c24.427,0,49.406,12.532,66.841,33.53c0.355,0.422,0.709,0.845,1.048,1.283c0.731,0.946,1.854,1.476,3.063,1.479 &#9;&#9;c1.193-0.015,2.316-0.59,3.025-1.554c6.406-8.699,15.382-15.726,25.948-20.323c14.414-6.283,29.704-9.469,45.439-9.469 &#9;&#9;c16.816,0,33.525,3.624,49.665,10.772c13.231,5.866,25.475,13.914,36.39,23.92c0.731,0.672,1.655,1.004,2.579,1.004 &#9;&#9;c1.032,0,2.059-0.417,2.812-1.238c1.425-1.553,1.322-3.968-0.231-5.392c-11.527-10.568-24.464-19.071-38.459-25.273 &#9;&#9;c-17.117-7.583-34.863-11.427-52.755-11.427c-16.794,0-33.105,3.399-48.487,10.104c-10.243,4.455-19.164,10.982-26.049,19.025 &#9;&#9;c-18.762-21.388-45.037-34.075-70.829-34.075c-0.569,0-1.134,0.001-1.704,0.016c-11.517,0.25-22.732,2.882-33.331,7.823 &#9;&#9;c-1.908,0.891-2.735,3.161-1.844,5.072C1368.782,896.06,1371.05,896.888,1372.963,895.996"/> 	<path fill="#2D2D2D" d="M1359.935,982.796c9.342-1.963,17.505-7.742,22.391-15.849c2.633-4.341,12.371-16.784,22.174-17.003h0.35 &#9;&#9;c6.148,0,14.103,4.617,19.799,11.494c4.838,5.815,7.256,12.235,6.315,16.749c-0.575,2.742-2.29,6.896-3.811,10.566 &#9;&#9;c-1.306,3.186-2.698,6.6-3.978,10.244c-6.545,18.531-6.804,35.507-0.768,50.456c5.239,13.001,16.112,24.023,29.086,29.481 &#9;&#9;c12.188,5.143,25.549,5.264,37.335,0.378c18.982-7.837,26.861-25.085,29.452-30.743c12.027-26.145,16.412-56.233,12.345-84.703 &#9;&#9;c-0.156-1.121-0.328-2.242-0.511-3.407c-0.554-3.743,0.124,0.887-0.23-1.525c6.39-2.663,13.204-4.011,20.255-4.011 &#9;&#9;c8.288,0,16.672,1.852,24.911,5.504c18.535,8.221,33.299,24.102,39.495,42.48c3.87,11.507,13.651,20.194,25.523,22.673 &#9;&#9;c2.053,0.434,4.084-0.891,4.515-2.957c0.43-2.063-0.893-4.086-2.956-4.516c-9.228-1.928-16.833-8.686-19.848-17.637 &#9;&#9;c-6.868-20.371-23.18-37.948-43.634-47.022c-9.223-4.086-18.649-6.159-28.007-6.159c-8.395,0-16.493,1.673-24.114,4.994 &#9;&#9;c-2.381,1.069-4.375,2.4-4.073,4.978c0.145,1.246,0.392,2.852,0.617,4.343c0.178,1.153,0.344,2.23,0.495,3.326 &#9;&#9;c3.869,27.051-0.296,55.622-11.727,80.458c-2.279,4.991-9.223,20.182-25.427,26.872c-9.873,4.094-21.218,3.958-31.456-0.359 &#9;&#9;c-11.141-4.687-20.471-14.145-24.964-25.302c-5.32-13.175-5.025-28.334,0.887-45.062c1.22-3.476,2.563-6.785,3.832-9.872 &#9;&#9;c2.053-4.962,3.558-8.722,4.225-11.917c1.43-6.842-1.532-15.511-7.912-23.184c-7.169-8.659-17.251-14.253-25.673-14.253 &#9;&#9;l-0.436,0.001c-16.106,0.359-28.489,20.474-28.623,20.687c-3.795,6.307-10.147,10.8-17.424,12.326 &#9;&#9;c-2.064,0.434-3.381,2.457-2.951,4.521C1355.851,981.908,1357.883,983.224,1359.935,982.796"/> 	<path fill="#2D2D2D" d="M1616.421,922.542c-1.746-1.185-4.117-0.733-5.305,1.01c-1.188,1.744-0.73,4.117,1.011,5.304 &#9;&#9;c9.679,6.582,18.349,14.512,25.771,23.569c0.752,0.92,1.849,1.397,2.95,1.397c0.854,0,1.709-0.283,2.418-0.864 &#9;&#9;c1.629-1.336,1.87-3.741,0.532-5.373C1635.913,937.962,1626.702,929.537,1616.421,922.542"/> 	<path fill="#2D2D2D" d="M1507.757,910.276c-10.91,4.761-19.648,12.187-25.27,21.476c-1.092,1.804-0.517,4.149,1.289,5.241 &#9;&#9;c0.618,0.374,1.301,0.553,1.973,0.553c1.289,0,2.553-0.656,3.268-1.842c4.799-7.932,12.34-14.305,21.793-18.43 &#9;&#9;c25.984-11.325,55.398-10.872,82.809,1.273c1.924,0.854,4.186-0.014,5.041-1.943c0.849-1.927-0.021-4.183-1.946-5.036 &#9;&#9;C1567.32,898.544,1535.725,898.085,1507.757,910.276"/> 	<path fill="#2D2D2D" d="M1363.53,918.836c0.813,0,1.758-0.319,2.445-0.887c11.695-8.869,24.341-13.51,37.6-13.794 &#9;&#9;c20.283-0.446,41.366,10.033,56.296,28c13.968,16.791,19.772,36.981,15.936,55.395c-1.397,6.701-3.95,12.94-6.202,18.444 &#9;&#9;l-0.06,0.149c-1.204,2.882-2.268,5.481-3.182,8.109c-0.692,1.991,0.36,4.167,2.349,4.858c0.42,0.145,0.839,0.212,1.253,0.212 &#9;&#9;c1.585,0,3.063-0.989,3.606-2.565c0.843-2.426,1.864-4.912,3.03-7.7l0.069-0.173c2.377-5.808,5.068-12.393,6.605-19.778 &#9;&#9;c4.321-20.704-2.068-43.242-17.53-61.832c-16.403-19.738-39.679-31.246-62.337-30.753c-14.952,0.322-29.146,5.521-42.189,15.452 &#9;&#9;c-1.053,0.813-1.741,2.29-1.424,3.821C1360.15,917.534,1361.687,918.836,1363.53,918.836"/> 	<path fill="#2D2D2D" d="M1360.693,966.612c3.579-1.582,6.546-4.197,8.593-7.587c0.146-0.238,14.447-23.901,34.961-24.348 &#9;&#9;c10.888-0.255,23.223,6.267,32.144,17.007c7.981,9.582,11.448,20.384,9.523,29.628c-0.87,4.13-2.789,8.76-4.676,13.346 &#9;&#9;c-1.23,2.994-2.499,6.09-3.665,9.409c-5.267,14.938-5.605,28.286-1.011,39.678c3.768,9.328,11.566,17.221,20.853,21.114 &#9;&#9;c8.534,3.593,17.628,3.64,25.598,0.346c11.942-4.927,17.936-15.485,21.401-23.005c10.808-23.533,14.747-50.594,11.099-76.157 &#9;&#9;c-0.146-1.088-0.317-2.192-0.5-3.328c-0.532-3.445-1.086-7.008-0.758-8.98c0.408-2.482,3.541-6.186,8.754-8.459 &#9;&#9;c18.063-7.873,38.744-7.448,58.231,1.198c22.363,9.91,40.222,29.186,47.763,51.57c1.708,5.031,5.46,9.145,10.297,11.288 &#9;&#9;c1.924,0.855,4.181-0.014,5.041-1.943c0.85-1.928-0.021-4.183-1.945-5.035c-2.935-1.301-5.127-3.702-6.159-6.753 &#9;&#9;c-8.218-24.37-27.618-45.345-51.905-56.105c-21.46-9.523-44.322-9.954-64.375-1.216c-7.137,3.115-12.333,8.7-13.236,14.219 &#9;&#9;c-0.521,3.17,0.097,7.161,0.763,11.471c0.161,1.02,0.328,2.053,0.468,3.113c3.45,24.17-0.269,49.717-10.47,71.928 &#9;&#9;c-2.929,6.346-7.916,15.234-17.386,19.141c-6.132,2.537-13.172,2.429-19.723-0.328c-7.455-3.125-13.711-9.455-16.727-16.933 &#9;&#9;c-3.885-9.616-3.504-21.151,1.129-34.29c1.102-3.137,2.333-6.14,3.559-9.132c1.982-4.799,4.03-9.761,5.052-14.588 &#9;&#9;c2.407-11.546-1.649-24.696-11.126-36.075c-10.366-12.487-24.963-20.047-38.179-19.76c-24.7,0.538-40.684,26.957-41.339,28.057 &#9;&#9;c-1.221,2.018-2.994,3.583-5.133,4.529c-1.93,0.852-2.801,3.106-1.945,5.034C1356.513,966.591,1358.764,967.461,1360.693,966.612"/> 	<path fill="#2D2D2D" d="M1362.444,942.516c6.987-8.444,21.67-22.673,41.469-23.108c15.521-0.363,32.397,8.285,44.216,22.501 &#9;&#9;c10.974,13.201,15.612,28.7,12.726,42.521c-1.123,5.369-3.213,10.465-5.428,15.86c-1.177,2.875-2.396,5.846-3.456,8.858 &#9;&#9;c-4.052,11.476-4.466,20.924-1.252,28.887c2.273,5.619,6.986,10.386,12.608,12.75c12.479,5.248,21.572-2.724,27.21-14.968 &#9;&#9;c9.599-20.892,13.098-44.921,9.852-67.654c-0.146-1.045-0.306-2.094-0.468-3.143c-0.742-4.833-1.445-9.396-0.736-13.74 &#9;&#9;c1.602-9.758,10.212-16.732,17.73-20.005c47.918-20.88,99.883,8.609,120.552,47.898c0.983,1.866,3.295,2.58,5.159,1.601 &#9;&#9;c1.865-0.982,2.58-3.29,1.602-5.156c-11.759-22.347-31.912-40.853-55.285-50.771c-24.959-10.592-51.621-10.793-75.075-0.572 &#9;&#9;c-11.946,5.2-20.46,15.073-22.212,25.769c-0.908,5.542-0.08,10.928,0.72,16.136c0.156,1.016,0.312,2.031,0.457,3.052 &#9;&#9;c3.042,21.309-0.236,43.822-9.228,63.395c-3.811,8.271-8.905,14.654-17.316,11.121c-3.734-1.57-6.991-4.854-8.491-8.57 &#9;&#9;c-2.482-6.159-2.031-13.842,1.376-23.492c0.994-2.832,2.177-5.713,3.321-8.496c2.246-5.477,4.568-11.14,5.837-17.197 &#9;&#9;c3.364-16.116-1.859-33.962-14.328-48.963c-13.275-15.967-32.547-25.664-50.262-25.255c-22.83,0.502-39.355,16.425-47.176,25.873 &#9;&#9;c-1.349,1.624-1.117,4.03,0.505,5.375C1358.688,944.365,1361.102,944.141,1362.444,942.516"/> </g> </svg>