<?xml version="1.0" encoding="utf-8"?>
<!-- Generator: Adobe Illustrator 15.0.0, SVG Export Plug-In . SVG Version: 6.00 Build 0)  -->
<!DOCTYPE svg PUBLIC "-//W3C//DTD SVG 1.1//EN" "http://www.w3.org/Graphics/SVG/1.1/DTD/svg11.dtd">
<svg version="1.1" id="Layer_1" xmlns="http://www.w3.org/2000/svg" xmlns:xlink="http://www.w3.org/1999/xlink" x="0px" y="0px"
	 width="595.28px" height="841.89px" viewBox="0 0 595.28 841.89" enable-background="new 0 0 595.28 841.89" xml:space="preserve">
<g>
	<path fill="#141414" d="M412.833,365.793h-29.192v-65.127c0-47.496-38.504-86-86.001-86c-47.496,0-86,38.504-86,86v65.127h-29.191
		c-26.614,0-48.189,21.575-48.189,48.189V577.24c0,26.613,21.575,48.189,48.189,48.189h230.385
		c26.613,0,48.188-21.576,48.188-48.189V413.982C461.021,387.368,439.446,365.793,412.833,365.793z M243.64,300.635
		c0-29.99,24.313-54.302,54.303-54.302s54.302,24.312,54.302,54.302v65.159H243.64V300.635z M427.974,581.939
		c0,6.262-5.076,11.338-11.339,11.338h-237.99c-6.262,0-11.338-5.076-11.338-11.338V409.283c0-6.262,5.077-11.338,11.338-11.338
		h237.99c6.263,0,11.339,5.077,11.339,11.338V581.939z"/>
	<path fill="#141414" d="M297.64,444.666c-16.201,0-29.333,13.134-29.333,29.334c0,10.008,5.016,18.841,12.667,24.135V534
		c0,8.837,7.164,16,16,16c8.837,0,16-7.163,16-16v-34.992c8.397-5.16,14-14.429,14-25.008
		C326.974,457.8,313.841,444.666,297.64,444.666z"/>
</g>
</svg>
