<?xml version="1.0" encoding="utf-8"?>
<!-- Generator: Adobe Illustrator 15.0.0, SVG Export Plug-In . SVG Version: 6.00 Build 0)  -->
<!DOCTYPE svg PUBLIC "-//W3C//DTD SVG 1.1//EN" "http://www.w3.org/Graphics/SVG/1.1/DTD/svg11.dtd">
<svg version="1.1" id="Layer_1" xmlns="http://www.w3.org/2000/svg" xmlns:xlink="http://www.w3.org/1999/xlink" x="0px" y="0px"
	 width="595.28px" height="841.89px" viewBox="0 0 595.28 841.89" enable-background="new 0 0 595.28 841.89" xml:space="preserve">
<g>
	<path fill="#141414" d="M297.641,408.333c39.58,0,71.666-32.086,71.666-71.667c0-39.581-32.086-71.667-71.666-71.667
		c-39.581,0-71.667,32.086-71.667,71.667C225.974,376.247,258.06,408.333,297.641,408.333z M297.641,287.667
		c27.062,0,49,21.938,49,49c0,27.062-21.938,49-49,49c-27.063,0-49.001-21.938-49.001-49
		C248.64,309.604,270.578,287.667,297.641,287.667z"/>
	<path fill="#141414" d="M298.281,421.333c0,0-133.333-8.667-133.333,115.333c0,0,0.667,39.333,41.333,39.333h180.667
		c0,0,43.333,2.666,43.333-42.667C430.281,533.333,436.947,421.333,298.281,421.333z M408.281,534.667
		c0,17.334-19.334,18.666-19.334,18.666s-162.667,0-181.333,0s-19.333-18.666-19.333-18.666c0-96,110-89.334,110-89.334
		C415.614,445.333,408.281,534.667,408.281,534.667z"/>
</g>
</svg>
