<?xml version="1.0" encoding="utf-8"?>
<!-- Generator: Adobe Illustrator 15.0.0, SVG Export Plug-In . SVG Version: 6.00 Build 0)  -->
<!DOCTYPE svg PUBLIC "-//W3C//DTD SVG 1.1//EN" "http://www.w3.org/Graphics/SVG/1.1/DTD/svg11.dtd">
<svg version="1.1" id="Layer_1" xmlns="http://www.w3.org/2000/svg" xmlns:xlink="http://www.w3.org/1999/xlink" x="0px" y="0px"
	 width="1190.55px" height="841.89px" viewBox="0 0 1190.55 841.89" enable-background="new 0 0 1190.55 841.89"
	 xml:space="preserve">
<g>
	<g>
		<g>
			<g>
				<path d="M363.519,454.036c0,4.17,1.036,7.123,3.116,8.863c2.081,1.736,5.739,2.604,10.966,2.604h7.045
					c3.082,0,5.361,0.814,6.841,2.431c1.472,1.626,2.21,3.422,2.21,5.388c0,1.972-0.739,3.766-2.21,5.387
					c-1.48,1.623-3.759,2.433-6.841,2.433h-7.045c-11.535,0-20.289-2.142-26.255-6.429c-5.97-4.286-8.954-11.175-8.954-20.676
					V366.99c0-1.738,1.108-3.157,3.321-4.256c2.211-1.102,4.591-1.654,7.142-1.654c2.68,0,5.13,0.553,7.341,1.654
					c2.215,1.099,3.323,2.518,3.323,4.256v31.793h24.545c1.877,0,3.321,0.697,4.324,2.088c1.008,1.39,1.513,2.951,1.513,4.69
					c0,1.737-0.504,3.298-1.513,4.689c-1.003,1.392-2.447,2.085-4.324,2.085h-24.545V454.036z"/>
				<path d="M506.171,479.232c-0.67,1.39-1.778,2.339-3.319,2.867c-1.545,0.517-3.253,0.777-5.131,0.777
					c-2.014,0-3.792-0.291-5.332-0.87c-1.545-0.581-2.652-1.444-3.322-2.603l-17.505-44.829l-17.304,44.307
					c-0.669,1.276-1.845,2.259-3.519,2.954c-1.68,0.695-3.523,1.041-5.533,1.041c-1.881,0-3.59-0.261-5.13-0.777
					c-1.545-0.528-2.653-1.594-3.323-3.218l-31.185-70.192c-0.269-0.581-0.471-1.101-0.602-1.567
					c-0.137-0.461-0.201-0.924-0.201-1.391c0-1.042,0.433-2.022,1.304-2.95c0.875-0.926,1.978-1.739,3.321-2.434
					c1.341-0.695,2.781-1.244,4.327-1.65c1.54-0.403,3.048-0.608,4.528-0.608c1.473,0,2.781,0.262,3.924,0.783
					c1.135,0.521,1.974,1.361,2.511,2.519l22.335,54.036l17.104-47.957c0.669-1.619,1.64-2.69,2.916-3.213
					c1.272-0.52,2.781-0.78,4.526-0.78c1.742,0,3.254,0.261,4.529,0.78c1.274,0.522,2.244,1.594,2.917,3.213l16.902,48.305
					l22.533-54.384c0.806-2.201,2.885-3.302,6.238-3.302c1.339,0,2.785,0.173,4.325,0.521c1.541,0.347,2.986,0.871,4.329,1.564
					c1.337,0.697,2.479,1.538,3.418,2.52c0.94,0.985,1.41,2.059,1.41,3.215c0,0.929-0.27,1.854-0.803,2.781L506.171,479.232z"/>
				<path d="M662.133,475.06c0,1.503-1.075,2.896-3.218,4.173c-2.149,1.273-4.63,1.908-7.446,1.908
					c-3.086,0-5.601-0.635-7.547-1.908c-1.944-1.276-2.916-2.67-2.916-4.173v-70.37c0-1.733,0.972-3.152,2.916-4.256
					c1.946-1.096,4.461-1.65,7.547-1.65c2.681,0,4.932,0.555,6.74,1.65c1.811,1.104,2.717,2.522,2.717,4.256v6.257
					c2.014-3.357,5.295-6.399,9.86-9.122c4.559-2.721,10.26-4.082,17.101-4.082c4.693,0,9.154,0.898,13.38,2.691
					c4.225,1.8,7.948,4.256,11.169,7.384c3.218,3.129,5.766,6.777,7.645,10.948c1.876,4.171,2.816,8.572,2.816,13.205v43.089
					c0,1.969-1.104,3.476-3.32,4.52c-2.213,1.043-4.661,1.562-7.345,1.562c-2.411,0-4.762-0.519-7.041-1.562
					c-2.282-1.044-3.419-2.551-3.419-4.52v-43.089c0-2.201-0.537-4.4-1.611-6.604c-1.075-2.195-2.512-4.14-4.326-5.819
					c-1.81-1.678-3.955-3.039-6.438-4.083c-2.483-1.041-5.129-1.564-7.948-1.564c-2.411,0-4.795,0.408-7.142,1.218
					s-4.425,1.995-6.239,3.563c-1.809,1.563-3.252,3.471-4.324,5.733c-1.075,2.257-1.609,4.777-1.609,7.558V475.06z"/>
				<path d="M777.621,468.457c3.354,0,6.102-0.259,8.252-0.784c2.143-0.518,3.888-1.214,5.231-2.084
					c1.337-0.867,2.28-1.88,2.815-3.037c0.535-1.159,0.803-2.317,0.803-3.478c0-3.01-1.206-5.357-3.618-7.038
					c-2.415-1.677-5.403-3.037-8.956-4.082c-3.555-1.041-7.446-2.055-11.669-3.041c-4.226-0.982-8.117-2.314-11.673-3.996
					c-3.555-1.678-6.535-3.908-8.949-6.689c-2.416-2.776-3.624-6.602-3.624-11.468c0-3.009,0.603-5.994,1.811-8.946
					c1.207-2.953,3.148-5.616,5.837-7.99c2.68-2.377,6.236-4.314,10.664-5.822c4.425-1.504,9.789-2.259,16.096-2.259
					c3.753,0,7.441,0.261,11.065,0.781c3.622,0.521,6.841,1.274,9.657,2.258c2.816,0.985,5.096,2.085,6.841,3.304
					c1.739,1.216,2.615,2.519,2.615,3.91c0,0.694-0.168,1.535-0.502,2.518c-0.336,0.986-0.874,1.938-1.608,2.867
					c-0.738,0.928-1.613,1.737-2.615,2.432c-1.007,0.696-2.115,1.044-3.322,1.044c-1.074,0-2.283-0.262-3.619-0.783
					c-1.344-0.521-2.889-1.098-4.629-1.739c-1.746-0.636-3.724-1.216-5.935-1.735c-2.214-0.521-4.73-0.783-7.546-0.783
					c-5.906,0-10.096,1.13-12.575,3.389c-2.482,2.258-3.723,4.491-3.723,6.691c0,2.548,1.207,4.489,3.623,5.819
					c2.411,1.333,5.432,2.492,9.052,3.475c3.623,0.985,7.546,1.972,11.771,2.953c4.225,0.985,8.147,2.402,11.77,4.256
					c3.624,1.854,6.641,4.345,9.055,7.472c2.412,3.13,3.621,7.297,3.621,12.51c0,7.413-3.054,13.29-9.152,17.636
					c-6.106,4.345-14.86,6.517-26.258,6.517c-4.965,0-9.558-0.411-13.782-1.219c-4.229-0.807-7.884-1.883-10.969-3.214
					c-3.085-1.329-5.499-2.836-7.242-4.515c-1.745-1.679-2.614-3.33-2.614-4.954c0-1.619,0.668-3.389,2.013-5.298
					c1.337-1.911,3.081-2.867,5.228-2.867c1.34,0,2.684,0.408,4.023,1.217c1.342,0.809,2.949,1.735,4.832,2.779
					c1.877,1.042,4.257,1.971,7.141,2.779C769.741,468.053,773.327,468.457,777.621,468.457z"/>
			</g>
			<g>
				<g>
					<path fill="#CCCCCC" d="M566.934,398.783c3.085,0,5.599,1.047,7.513,3.082c1.865,2.002,2.689,4.51,2.509,7.474l-4.168,68.49
						c-0.052,0.842-0.637,1.606-1.744,2.297c-1.092,0.678-2.442,1.015-4.063,1.015c-1.621,0-2.954-0.337-4.012-1.015
						c-1.07-0.69-1.638-1.455-1.688-2.297l-4.168-68.49c-0.18-2.964,0.61-5.472,2.411-7.474
						C561.367,399.83,563.848,398.783,566.934,398.783z"/>
					<path fill="#F1CC47" d="M566.865,383.438c6.747-0.02,12.202-5.496,12.184-12.242c-0.021-6.751-5.501-12.199-12.245-12.184
						c-6.744,0.019-12.202,5.502-12.183,12.244C554.643,378.002,560.121,383.448,566.865,383.438z"/>
				</g>
				<g>
					<path fill="#8B609C" d="M608.028,481.133c6.748-0.018,12.202-5.497,12.185-12.24c-0.021-6.751-5.501-12.2-12.245-12.185
						c-6.743,0.02-12.201,5.502-12.183,12.245C595.807,475.697,601.285,481.144,608.028,481.133z"/>
					<path fill="#CCCCCC" d="M608.051,441.378c-3.084,0-5.6-1.046-7.512-3.083c-1.865-2.001-2.69-4.508-2.51-7.472l4.168-68.49
						c0.052-0.841,0.637-1.606,1.744-2.297c1.092-0.681,2.441-1.016,4.063-1.016s2.954,0.335,4.012,1.016
						c1.072,0.69,1.638,1.456,1.688,2.297l4.167,68.49c0.183,2.964-0.608,5.471-2.408,7.472
						C613.617,440.332,611.137,441.378,608.051,441.378z"/>
				</g>
			</g>
		</g>
		<g>
			<path d="M822.238,410.809c0-2.229,0.407-4.165,1.229-5.795c0.814-1.633,1.854-2.988,3.122-4.065
				c1.271-1.074,2.675-1.87,4.217-2.388c1.552-0.517,3.06-0.778,4.52-0.778c1.495,0,2.997,0.268,4.516,0.797
				c1.521,0.532,2.902,1.327,4.142,2.394c1.238,1.058,2.244,2.401,3.014,4.02c0.779,1.621,1.162,3.507,1.162,5.66
				c0,2.229-0.407,4.161-1.227,5.792c-0.813,1.636-1.854,2.991-3.122,4.064c-1.264,1.075-2.67,1.873-4.219,2.391
				c-1.549,0.519-3.05,0.777-4.518,0.777c-1.49,0-2.999-0.269-4.519-0.798c-1.518-0.529-2.895-1.328-4.135-2.391
				c-1.238-1.06-2.243-2.404-3.021-4.021C822.629,414.847,822.238,412.962,822.238,410.809z M846.303,410.652
				c0-1.62-0.264-3.108-0.783-4.463c-0.52-1.353-1.256-2.521-2.215-3.509c-0.957-0.979-2.111-1.75-3.464-2.311
				c-1.345-0.553-2.854-0.834-4.516-0.834c-1.629,0-3.136,0.272-4.52,0.816c-1.375,0.545-2.554,1.316-3.54,2.31
				c-0.986,0.996-1.76,2.185-2.32,3.569c-0.564,1.38-0.844,2.904-0.844,4.577c0,1.621,0.256,3.107,0.776,4.463
				s1.262,2.522,2.22,3.506c0.957,0.981,2.113,1.754,3.457,2.311c1.354,0.555,2.861,0.838,4.519,0.838
				c1.634,0,3.142-0.276,4.518-0.82c1.375-0.544,2.56-1.313,3.541-2.31c0.988-0.997,1.759-2.185,2.328-3.566
				C846.021,413.854,846.303,412.322,846.303,410.652z M831.189,403.438c0-0.398,0.227-0.619,0.678-0.674h3.756
				c0.587,0,1.16,0.072,1.711,0.216c0.544,0.146,1.025,0.389,1.436,0.717c0.407,0.333,0.73,0.773,0.971,1.317
				c0.239,0.545,0.357,1.218,0.357,2.011c0,1.273-0.273,2.229-0.824,2.868c-0.551,0.637-1.231,1.064-2.046,1.274l2.782,5.815
				c0.06,0.159,0.088,0.252,0.088,0.281c0,0.266-0.118,0.497-0.357,0.697c-0.24,0.197-0.484,0.296-0.742,0.296
				c-0.198,0-0.352-0.072-0.461-0.218c-0.113-0.146-0.229-0.323-0.342-0.539l-2.949-6.094h-2.109v6.133
				c0,0.215-0.098,0.38-0.277,0.5c-0.186,0.119-0.402,0.182-0.658,0.182c-0.25,0-0.484-0.063-0.694-0.182
				c-0.21-0.12-0.317-0.285-0.317-0.5V403.438z M833.137,404.436v5.415h2.486c0.76,0,1.371-0.199,1.838-0.616
				c0.461-0.41,0.694-1.095,0.694-2.049c0-1.012-0.233-1.721-0.694-2.134c-0.467-0.409-1.078-0.616-1.838-0.616H833.137z"/>
		</g>
	</g>
</g>
</svg>
